<svg width="24" height="24" viewBox="0 0 24 24" fill="none" xmlns="http://www.w3.org/2000/svg">
<g id="Login-3--Streamline-Ultimate" clip-path="url(#clip0_137_1509)">
<path id="Vector" d="M19.5625 18.1875V19.5625C19.5625 19.9272 19.4177 20.277 19.1598 20.5348C18.902 20.7927 18.5522 20.9375 18.1875 20.9375H14.0625" stroke="#9291A5" stroke-width="2" stroke-linecap="round" stroke-linejoin="round"/>
<path id="Vector_2" d="M14.0625 4.4375H18.1875C18.5522 4.4375 18.902 4.58237 19.1598 4.84023C19.4177 5.09809 19.5625 5.44783 19.5625 5.8125V7.1875" stroke="#9291A5" stroke-width="2" stroke-linecap="round" stroke-linejoin="round"/>
<path id="Vector_3" d="M10.5242 22.3034L2.2742 21.1667C2.10985 21.1424 1.95988 21.0593 1.85203 20.9329C1.74418 20.8065 1.68574 20.6453 1.68754 20.4792V4.41004C1.69017 4.2552 1.74501 4.10578 1.84317 3.98599C1.94133 3.8662 2.07706 3.78306 2.22837 3.75004L10.4783 1.71505C10.5785 1.69317 10.6823 1.69398 10.7821 1.71741C10.8819 1.74084 10.9753 1.78629 11.0553 1.85045C11.1352 1.9146 11.1998 1.99583 11.2444 2.08818C11.2888 2.18055 11.3121 2.28169 11.3125 2.38421V21.6342C11.3125 21.7326 11.291 21.8298 11.2498 21.9191C11.2085 22.0083 11.1481 22.0875 11.0732 22.1512C10.9982 22.2149 10.9103 22.2614 10.8155 22.2877C10.7206 22.314 10.6212 22.3194 10.5242 22.3034Z" stroke="#9291A5" stroke-width="2" stroke-linecap="round" stroke-linejoin="round"/>
<path id="Vector_4" d="M17.5 9.9375L14.75 12.6875H22.3125" stroke="#9291A5" stroke-width="2" stroke-linecap="round" stroke-linejoin="round"/>
<path id="Vector_5" d="M17.5 15.4375L14.75 12.6875" stroke="#9291A5" stroke-width="2" stroke-linecap="round" stroke-linejoin="round"/>
<path id="Vector_6" d="M7.76025 12.3496C7.5704 12.3496 7.4165 12.1958 7.4165 12.0059C7.4165 11.816 7.5704 11.6621 7.76025 11.6621" stroke="#9291A5" stroke-width="2"/>
<path id="Vector_7" d="M7.76025 12.3496C7.9501 12.3496 8.104 12.1958 8.104 12.0059C8.104 11.816 7.9501 11.6621 7.76025 11.6621" stroke="#9291A5" stroke-width="2"/>
</g>
<defs>
<clipPath id="clip0_137_1509">
<rect width="24" height="24" fill="white"/>
</clipPath>
</defs>
</svg>
