<svg width="14" height="14" viewBox="0 0 14 14" fill="none" xmlns="http://www.w3.org/2000/svg">
<g id="Move-Expand-Vertical--Streamline-Ultimate" clip-path="url(#clip0_137_1503)">
<g id="Group">
<path id="Vector" d="M2.11167 5.60592C2.17891 5.67365 2.25888 5.7274 2.34698 5.76408C2.43509 5.80076 2.52958 5.81965 2.62501 5.81965C2.72044 5.81965 2.81493 5.80076 2.90303 5.76408C2.99113 5.7274 3.07111 5.67365 3.13834 5.60592L6.89501 1.86092C6.90861 1.84681 6.92492 1.83558 6.94296 1.82791C6.961 1.82025 6.9804 1.81629 7.00001 1.81629C7.01961 1.81629 7.03901 1.82025 7.05705 1.82791C7.07509 1.83558 7.0914 1.84681 7.10501 1.86092L10.8617 5.60592C10.9291 5.67333 11.0091 5.72681 11.0972 5.76329C11.1853 5.79978 11.2797 5.81855 11.375 5.81855C11.4703 5.81855 11.5647 5.79978 11.6528 5.76329C11.7409 5.72681 11.8209 5.67333 11.8883 5.60592C11.9558 5.53851 12.0092 5.45848 12.0457 5.3704C12.0822 5.28233 12.101 5.18792 12.101 5.09259C12.101 4.99725 12.0822 4.90285 12.0457 4.81478C12.0092 4.7267 11.9558 4.64667 11.8883 4.57926L7.51334 0.215923C7.44611 0.148196 7.36613 0.094444 7.27803 0.0577629C7.18993 0.0210819 7.09544 0.00219727 7.00001 0.00219727C6.90457 0.00219727 6.81009 0.0210819 6.72198 0.0577629C6.63388 0.094444 6.55391 0.148196 6.48667 0.215923L2.11167 4.57926C2.04395 4.64649 1.9902 4.72646 1.95351 4.81457C1.91683 4.90267 1.89795 4.99716 1.89795 5.09259C1.89795 5.18802 1.91683 5.28251 1.95351 5.37061C1.9902 5.45872 2.04395 5.53869 2.11167 5.60592Z" fill="#9291A5"/>
<path id="Vector_2" d="M11.8882 8.39463C11.821 8.32691 11.741 8.27316 11.6529 8.23647C11.5648 8.19979 11.4703 8.18091 11.3749 8.18091C11.2795 8.18091 11.185 8.19979 11.0969 8.23647C11.0088 8.27316 10.9288 8.32691 10.8616 8.39463L7.10489 12.1396C7.09128 12.1537 7.07498 12.165 7.05693 12.1726C7.03889 12.1803 7.01949 12.1843 6.99989 12.1843C6.98029 12.1843 6.96088 12.1803 6.94284 12.1726C6.9248 12.165 6.90849 12.1537 6.89489 12.1396L3.13822 8.39463C3.00208 8.25849 2.81743 8.182 2.62489 8.182C2.43235 8.182 2.2477 8.25849 2.11156 8.39463C1.97541 8.53078 1.89893 8.71543 1.89893 8.90797C1.89893 9.1005 1.97541 9.28516 2.11156 9.4213L6.48656 13.7846C6.55339 13.8531 6.63323 13.9075 6.72139 13.9446C6.80954 13.9817 6.90423 14.0008 6.99989 14.0008C7.09554 14.0008 7.19024 13.9817 7.27839 13.9446C7.36655 13.9075 7.44639 13.8531 7.51322 13.7846L11.8882 9.4213C11.9559 9.35407 12.0097 9.27409 12.0464 9.18599C12.0831 9.09789 12.1019 9.0034 12.1019 8.90797C12.1019 8.81253 12.0831 8.71805 12.0464 8.62994C12.0097 8.54184 11.9559 8.46187 11.8882 8.39463Z" fill="#9291A5"/>
</g>
</g>
<defs>
<clipPath id="clip0_137_1503">
<rect width="14" height="14" fill="white"/>
</clipPath>
</defs>
</svg>
