<svg width="24" height="24" viewBox="0 0 24 24" fill="none" xmlns="http://www.w3.org/2000/svg">
<g id="Multiple-Neutral-2--Streamline-Ultimate">
<path id="Vector" d="M3.97949 8.10384C3.97949 9.13708 4.38994 10.128 5.12056 10.8586C5.85117 11.5892 6.84209 11.9997 7.87533 11.9997C8.90856 11.9997 9.89948 11.5892 10.6301 10.8586C11.3607 10.128 11.7712 9.13708 11.7712 8.10384C11.7712 7.0706 11.3607 6.07968 10.6301 5.34907C9.89948 4.61846 8.90856 4.20801 7.87533 4.20801C6.84209 4.20801 5.85117 4.61846 5.12056 5.34907C4.38994 6.07968 3.97949 7.0706 3.97949 8.10384Z" stroke="#9291A5" stroke-width="2" stroke-linecap="round" stroke-linejoin="round"/>
<path id="Vector_2" d="M1.4585 19.7917C1.4585 18.0899 2.13454 16.4578 3.33789 15.2544C4.54125 14.051 6.17336 13.375 7.87516 13.375C9.57697 13.375 11.2091 14.051 12.4124 15.2544C13.6158 16.4578 14.2918 18.0899 14.2918 19.7917H1.4585Z" stroke="#9291A5" stroke-width="2" stroke-linecap="round" stroke-linejoin="round"/>
<path id="Vector_3" d="M16.125 19.7916H22.5417C22.5417 18.9263 22.319 18.0756 21.895 17.3214C21.4711 16.5671 20.8601 15.9347 20.121 15.4848C19.3819 15.035 18.5394 14.783 17.6747 14.753C16.81 14.723 15.9521 14.9161 15.1836 15.3137" stroke="#9291A5" stroke-width="2" stroke-linecap="round" stroke-linejoin="round"/>
<path id="Vector_4" d="M14.4697 10.3962C14.4697 10.7874 14.5468 11.1748 14.6965 11.5362C14.8462 11.8977 15.0657 12.2261 15.3423 12.5027C15.6189 12.7794 15.9474 12.9988 16.3088 13.1486C16.6703 13.2983 17.0577 13.3753 17.4489 13.3753C17.8401 13.3753 18.2275 13.2983 18.589 13.1486C18.9504 12.9988 19.2788 12.7794 19.5555 12.5027C19.8321 12.2261 20.0516 11.8977 20.2013 11.5362C20.351 11.1748 20.4281 10.7874 20.4281 10.3962C20.4281 10.0049 20.351 9.61753 20.2013 9.25608C20.0516 8.89463 19.8321 8.56621 19.5555 8.28957C19.2788 8.01293 18.9504 7.79348 18.589 7.64377C18.2275 7.49405 17.8401 7.41699 17.4489 7.41699C17.0577 7.41699 16.6703 7.49405 16.3088 7.64377C15.9474 7.79348 15.6189 8.01293 15.3423 8.28957C15.0657 8.56621 14.8462 8.89463 14.6965 9.25608C14.5468 9.61753 14.4697 10.0049 14.4697 10.3962Z" stroke="#9291A5" stroke-width="2" stroke-linecap="round" stroke-linejoin="round"/>
</g>
</svg>
