<svg width="24" height="24" viewBox="0 0 24 24" fill="none" xmlns="http://www.w3.org/2000/svg">
<g id="Question-Help-Circle--Streamline-Ultimate" clip-path="url(#clip0_137_1488)">
<g id="Group 1">
<path id="Vector" d="M8.47852 9.87841C8.47754 9.2139 8.6645 8.56266 9.01779 7.99986C9.37108 7.43705 9.87631 6.98561 10.4752 6.69765C11.0741 6.40969 11.7422 6.29694 12.4024 6.37241C13.0626 6.44789 13.688 6.70852 14.2064 7.12422C14.7249 7.53991 15.1152 8.09374 15.3323 8.72176C15.5494 9.34979 15.5846 10.0264 15.4336 10.6736C15.2827 11.3207 14.9519 11.912 14.4793 12.3791C14.0067 12.8463 13.4117 13.1703 12.7628 13.3137C12.55 13.3557 12.3581 13.4696 12.2192 13.6363C12.0804 13.8031 12.0031 14.0124 12.0003 14.2294L12.0003 14.9999" stroke="#9291A5" stroke-width="2" stroke-linecap="round" stroke-linejoin="round"/>
<path id="Vector_2" d="M12.0002 22.8002C17.9649 22.8002 22.8002 17.9649 22.8002 12.0002C22.8002 6.03552 17.9649 1.2002 12.0002 1.2002C6.03552 1.2002 1.2002 6.03552 1.2002 12.0002C1.2002 17.9649 6.03552 22.8002 12.0002 22.8002Z" stroke="#9291A5" stroke-width="2" stroke-linecap="round" stroke-linejoin="round"/>
<path id="Vector_3" d="M12.0019 18.0955C11.8722 18.0955 11.7671 17.9905 11.7671 17.8608C11.7671 17.7312 11.8722 17.626 12.0019 17.626" stroke="#9291A5" stroke-width="2"/>
<path id="Vector_4" d="M12.002 18.0955C12.1316 18.0955 12.2367 17.9905 12.2367 17.8608C12.2367 17.7312 12.1316 17.626 12.002 17.626" stroke="#9291A5" stroke-width="2"/>
</g>
</g>
<defs>
<clipPath id="clip0_137_1488">
<rect width="24" height="24" fill="white"/>
</clipPath>
</defs>
</svg>
