<svg width="24" height="24" viewBox="0 0 24 24" fill="none" xmlns="http://www.w3.org/2000/svg">
<g id="Cog--Streamline-Ultimate" clip-path="url(#clip0_137_1484)">
<path id="Vector" d="M22.5 9.5H20.64C20.4517 8.86177 20.197 8.24506 19.88 7.66L21.19 6.34C21.3311 6.2022 21.4429 6.03723 21.5185 5.85505C21.5941 5.67286 21.6321 5.47725 21.63 5.28C21.6315 5.08284 21.5933 4.88739 21.5177 4.70529C21.4421 4.52318 21.3307 4.35815 21.19 4.22L19.78 2.81C19.6414 2.66971 19.4764 2.55833 19.2944 2.48231C19.1124 2.40628 18.9172 2.36714 18.72 2.36714C18.5228 2.36714 18.3276 2.40628 18.1456 2.48231C17.9636 2.55833 17.7986 2.66971 17.66 2.81L16.34 4.13C15.7571 3.80595 15.14 3.5477 14.5 3.36V1.5C14.5 1.10218 14.342 0.720644 14.0607 0.43934C13.7794 0.158035 13.3978 0 13 0L11 0C10.6022 0 10.2206 0.158035 9.93934 0.43934C9.65804 0.720644 9.5 1.10218 9.5 1.5V3.36C8.86003 3.5477 8.24291 3.80595 7.66 4.13L6.34 2.81C6.20141 2.66971 6.03636 2.55833 5.8544 2.48231C5.67244 2.40628 5.4772 2.36714 5.28 2.36714C5.0828 2.36714 4.88756 2.40628 4.7056 2.48231C4.52365 2.55833 4.35859 2.66971 4.22 2.81L2.81 4.22C2.66932 4.35815 2.55787 4.52318 2.48228 4.70529C2.40669 4.88739 2.3685 5.08284 2.37 5.28C2.36676 5.47741 2.40414 5.67338 2.47983 5.85573C2.55553 6.03808 2.66791 6.20292 2.81 6.34L4.12 7.66C3.80299 8.24506 3.54826 8.86177 3.36 9.5H1.5C1.10218 9.5 0.720644 9.65804 0.43934 9.93934C0.158035 10.2206 0 10.6022 0 11L0 13C0 13.3978 0.158035 13.7794 0.43934 14.0607C0.720644 14.342 1.10218 14.5 1.5 14.5H3.36C3.54648 15.1389 3.80128 15.7558 4.12 16.34L2.81 17.66C2.5291 17.9412 2.37132 18.3225 2.37132 18.72C2.37132 19.1175 2.5291 19.4988 2.81 19.78L4.22 21.19C4.50497 21.4638 4.88482 21.6167 5.28 21.6167C5.67518 21.6167 6.05503 21.4638 6.34 21.19L7.66 19.88C8.24424 20.1987 8.86114 20.4535 9.5 20.64V22.5C9.5 22.8978 9.65804 23.2794 9.93934 23.5607C10.2206 23.842 10.6022 24 11 24H13C13.3978 24 13.7794 23.842 14.0607 23.5607C14.342 23.2794 14.5 22.8978 14.5 22.5V20.64C15.1389 20.4535 15.7558 20.1987 16.34 19.88L17.66 21.19C17.7986 21.3303 17.9636 21.4417 18.1456 21.5177C18.3276 21.5937 18.5228 21.6329 18.72 21.6329C18.9172 21.6329 19.1124 21.5937 19.2944 21.5177C19.4764 21.4417 19.6414 21.3303 19.78 21.19L21.19 19.78C21.4709 19.4988 21.6287 19.1175 21.6287 18.72C21.6287 18.3225 21.4709 17.9412 21.19 17.66L19.88 16.34C20.1987 15.7558 20.4535 15.1389 20.64 14.5H22.5C22.8978 14.5 23.2794 14.342 23.5607 14.0607C23.842 13.7794 24 13.3978 24 13V11C24 10.6022 23.842 10.2206 23.5607 9.93934C23.2794 9.65804 22.8978 9.5 22.5 9.5ZM12 17C11.0111 17 10.0444 16.7068 9.22215 16.1573C8.3999 15.6079 7.75904 14.827 7.3806 13.9134C7.00216 12.9998 6.90315 11.9945 7.09607 11.0245C7.289 10.0546 7.7652 9.16373 8.46447 8.46447C9.16373 7.7652 10.0546 7.289 11.0245 7.09607C11.9945 6.90315 12.9998 7.00216 13.9134 7.3806C14.827 7.75904 15.6079 8.3999 16.1573 9.22215C16.7068 10.0444 17 11.0111 17 12C17 13.3261 16.4732 14.5979 15.5355 15.5355C14.5979 16.4732 13.3261 17 12 17Z" fill="#9291A5"/>
</g>
<defs>
<clipPath id="clip0_137_1484">
<rect width="24" height="24" fill="white"/>
</clipPath>
</defs>
</svg>
