<svg width="24" height="24" viewBox="0 0 24 24" fill="none" xmlns="http://www.w3.org/2000/svg">
<g id="Single-Man-Circle--Streamline-Ultimate" clip-path="url(#clip0_137_1497)">
<path id="Vector" d="M1.45801 11.9997C1.45801 13.384 1.73068 14.7548 2.26044 16.0338C2.79021 17.3128 3.56671 18.4749 4.54559 19.4538C5.52447 20.4326 6.68658 21.2091 7.96555 21.7389C9.24453 22.2687 10.6153 22.5413 11.9997 22.5413C13.384 22.5413 14.7548 22.2687 16.0338 21.7389C17.3128 21.2091 18.4749 20.4326 19.4538 19.4538C20.4326 18.4749 21.2091 17.3128 21.7389 16.0338C22.2687 14.7548 22.5413 13.384 22.5413 11.9997C22.5413 10.6153 22.2687 9.24453 21.7389 7.96555C21.2091 6.68658 20.4326 5.52447 19.4538 4.54559C18.4749 3.56671 17.3128 2.79021 16.0338 2.26044C14.7548 1.73068 13.384 1.45801 11.9997 1.45801C10.6153 1.45801 9.24453 1.73068 7.96555 2.26044C6.68658 2.79021 5.52447 3.56671 4.54559 4.54559C3.56671 5.52447 2.79021 6.68658 2.26044 7.96555C1.73068 9.24453 1.45801 10.6153 1.45801 11.9997Z" stroke="#9291A5" stroke-width="2" stroke-linecap="round" stroke-linejoin="round"/>
<path id="Vector_2" d="M8.64307 7.04297C9.55624 7.98924 10.736 8.63496 12.0252 8.89418C13.3144 9.1534 14.652 9.01384 15.86 8.49405" stroke="#9291A5" stroke-width="2" stroke-linecap="round" stroke-linejoin="round"/>
<path id="Vector_3" d="M8.104 9.02083C8.104 10.0541 8.51446 11.045 9.24507 11.7756C9.97568 12.5062 10.9666 12.9167 11.9998 12.9167C13.0331 12.9167 14.024 12.5062 14.7546 11.7756C15.4852 11.045 15.8957 10.0541 15.8957 9.02083C15.8957 7.98759 15.4852 6.99667 14.7546 6.26606C14.024 5.53545 13.0331 5.125 11.9998 5.125C10.9666 5.125 9.97568 5.53545 9.24507 6.26606C8.51446 6.99667 8.104 7.98759 8.104 9.02083Z" stroke="#9291A5" stroke-width="2" stroke-linecap="round" stroke-linejoin="round"/>
<path id="Vector_4" d="M17.7906 17.9587C17.2718 16.8619 16.4521 15.9349 15.427 15.2858C14.4019 14.6366 13.2134 14.292 12.0001 14.292C10.7867 14.292 9.59825 14.6366 8.57311 15.2858C7.54797 15.9349 6.72829 16.8619 6.20947 17.9587" stroke="#9291A5" stroke-width="2" stroke-linecap="round" stroke-linejoin="round"/>
</g>
<defs>
<clipPath id="clip0_137_1497">
<rect width="24" height="24" fill="white"/>
</clipPath>
</defs>
</svg>
